<svg xmlns="http://www.w3.org/2000/svg" width="500" height="500" viewBox="0 0 500 500">
  <!-- Background -->
  <rect width="100%" height="100%" fill="#f0f4f8" />

  <!-- Cloud -->
  <g>
    <ellipse cx="200" cy="150" rx="100" ry="60" fill="#dfe9f3" />
    <ellipse cx="260" cy="160" rx="80" ry="50" fill="#dfe9f3" />
    <ellipse cx="150" cy="170" rx="90" ry="55" fill="#dfe9f3" />
  </g>

  <!-- Server -->
  <g transform="translate(300,100)">
    <rect x="10" y="10" width="100" height="150" fill="#b0c4de" rx="10" />
    <rect x="20" y="30" width="80" height="20" fill="#f0f4f8" />
    <rect x="20" y="70" width="80" height="20" fill="#f0f4f8" />
    <rect x="20" y="110" width="80" height="20" fill="#f0f4f8" />
  </g>

  <!-- Connection lines -->
  <line x1="200" y1="170" x2="300" y2="150" stroke="#7b92a8" stroke-width="3" />
  <line x1="200" y1="170" x2="100" y2="300" stroke="#7b92a8" stroke-width="3" />
  <line x1="200" y1="170" x2="400" y2="300" stroke="#7b92a8" stroke-width="3" />

  <!-- Laptop -->
  <g transform="translate(50,300)">
    <rect x="0" y="0" width="100" height="60" fill="#b0c4de" rx="5" />
    <rect x="5" y="10" width="90" height="30" fill="#f0f4f8" />
    <rect x="5" y="45" width="90" height="5" fill="#7b92a8" />
  </g>

  <!-- Mobile device -->
  <g transform="translate(380,300)">
    <rect x="0" y="0" width="50" height="90" fill="#b0c4de" rx="5" />
    <rect x="5" y="10" width="40" height="60" fill="#f0f4f8" />
    <rect x="5" y="75" width="40" height="5" fill="#7b92a8" />
  </g>
</svg>
